<svg xmlns="http://www.w3.org/2000/svg" viewBox="0 0 64 64" fill="none">
  <circle cx="32" cy="32" r="32" fill="#6C3BB4" />
  <path
    fill="#fff"
    d="M42.18 25.386c-.738-.43-1.696-.43-2.508 0l-5.758 3.308-3.91 2.156-5.758 3.308c-.738.432-1.696.432-2.508 0l-4.576-2.588c-.738-.43-1.254-1.22-1.254-2.084v-2.084c0-.862.442-1.652 1.254-2.084l4.5-2.516c.74-.432 1.7-.432 2.512 0l4.5 2.516c.74.432 1.256 1.222 1.256 2.084v3.308l3.91-2.23v-3.306a2.32 2.32 0 00-1.254-2.084l-8.34-4.744c-.738-.432-1.696-.432-2.508 0l-8.488 4.744a2.32 2.32 0 00-1.254 2.084v9.56c0 .864.442 1.654 1.254 2.086l8.488 4.744c.738.43 1.698.43 2.51 0l5.758-3.236 3.91-2.228 5.758-3.234c.738-.432 1.696-.432 2.508 0l4.502 2.516c.74.43 1.254 1.22 1.254 2.084v5.104c0 .862-.44 1.652-1.254 2.084l-4.5 2.588c-.74.432-1.7.432-2.512 0l-4.502-2.516c-.74-.432-1.256-1.222-1.256-2.084v-3.308l-3.91 2.23v3.306c0 .862.442 1.654 1.254 2.086l8.488 4.744c.738.432 1.696.432 2.508 0l8.488-4.744c.738-.43 1.254-1.22 1.254-2.084v-9.56a2.32 2.32 0 00-1.254-2.084l-8.56-4.818z"
  />
</svg>
