<svg xmlns="http://www.w3.org/2000/svg" viewBox="0 0 32 32">
  <rect width="32" height="32" rx="6" fill="#0f766e"/>
  <g transform="translate(4, 4) scale(0.75)">
    <path d="M16 6.5C13.5 4 9.5 4 7 6.5C4.5 9 4.5 13 7 15.5L16 24.5L25 15.5C27.5 13 27.5 9 25 6.5C22.5 4 18.5 4 16 6.5Z" fill="none" stroke="white" stroke-width="2" stroke-linejoin="round"/>
    <path d="M11 11C11 9.9 11.9 9 13 9C14.1 9 15 9.9 15 11" fill="none" stroke="white" stroke-width="1.8" stroke-linecap="round"/>
    <path d="M17 11C17 9.9 17.9 9 19 9C20.1 9 21 9.9 21 11" fill="none" stroke="white" stroke-width="1.8" stroke-linecap="round"/>
  </g>
</svg>
