<svg xmlns="http://www.w3.org/2000/svg" viewBox="0 0 32 32" fill="none">
  <rect width="32" height="32" rx="8" fill="#0c0c12"/>
  <path d="M8 22V10h4.2c2.4 0 3.9 1.2 3.9 3.1 0 1.3-.7 2.3-1.9 2.8 1.5.5 2.4 1.6 2.4 3.2 0 2.1-1.6 3.4-4.2 3.4H8zm3.2-8.8h.9c1.1 0 1.7-.5 1.7-1.3 0-.8-.6-1.2-1.7-1.2h-.9v2.5zm0 5.8h1c1.2 0 1.9-.5 1.9-1.4 0-.9-.7-1.4-1.9-1.4h-1v2.8zM18.5 22l3.5-12h3.4l3.5 12h-3.3l-.6-2.1h-3.1l-.6 2.1h-3.3zm4.2-4.8h2l-1-3.4-1 3.4z" fill="url(#g)"/>
  <defs>
    <linearGradient id="g" x1="8" y1="10" x2="28" y2="22" gradientUnits="userSpaceOnUse">
      <stop stop-color="#3b82f6"/>
      <stop offset="1" stop-color="#8b5cf6"/>
    </linearGradient>
  </defs>
</svg>
